<mxfile host="app.diagrams.net" modified="2024-09-23T06:24:10.173Z" agent="Mozilla/5.0 (Macintosh; Intel Mac OS X 10_15_7) AppleWebKit/537.36 (KHTML, like Gecko) Chrome/129.0.0.0 Safari/537.36" version="24.6.5" etag="Znd40ihZyMffAX3ytMD_" type="github">
  <diagram name="Страница — 1" id="y1lLn53iClg6HUuoQgJH">
    <mxGraphModel>
      <root>
        <mxCell id="0" />
        <mxCell id="1" parent="0" />
      </root>
    </mxGraphModel>
  </diagram>
</mxfile>
